<svg width="31" height="31" viewBox="0 0 31 31" fill="none" xmlns="http://www.w3.org/2000/svg">
<g clip-path="url(#clip0_70_13981)">
<path d="M0.00979772 8.60905C0.00979772 5.94969 0.0195954 3.29518 0 0.635821C0 0.169948 0.0734829 -0.00475475 0.607459 9.80949e-05C3.29204 0.0292152 5.97661 0.00980379 8.66119 0.0146566C9.68995 0.0146566 10.121 0.451413 10.1259 1.48022C10.1259 1.9655 10.1308 2.45079 10.1259 2.93607C10.121 3.30489 10.2925 3.47474 10.6648 3.46989C11.2184 3.46503 11.772 3.46018 12.3255 3.46989C13.1241 3.4893 13.6041 3.94546 13.6041 4.72677C13.609 8.73523 13.6041 12.7437 13.6139 16.7473C13.6139 17.1307 13.516 17.2471 13.1143 17.2471C10.6011 17.2277 8.08802 17.2277 5.57491 17.2471C5.11931 17.2471 5.04093 17.0773 5.06052 16.689C5.08502 16.0582 5.08502 15.4225 5.06052 14.7916C5.01643 13.5978 4.12974 12.7146 3.0128 12.7243C1.92035 12.734 1.05326 13.5881 0.994469 14.7576C0.960177 15.4322 0.960177 16.1067 0.994469 16.7813C1.01896 17.2277 0.788717 17.2326 0.450695 17.2471C0.0587863 17.2665 0.00489886 17.1015 0.00489886 16.7667C0.0146966 14.0442 0.00979772 11.3266 0.00979772 8.6042V8.60905ZM4.69801 2.32461C3.28224 2.31491 2.18489 3.38253 2.17999 4.7753C2.1702 6.17292 3.25774 7.26481 4.65392 7.27452C6.05009 7.27937 7.17683 6.18748 7.18663 4.82383C7.19643 3.45533 6.08439 2.33917 4.69801 2.32947V2.32461ZM6.80452 11.8847C8.186 11.8847 9.56748 11.8847 10.949 11.8847C11.2723 11.8847 11.6495 11.8944 11.6495 11.448C11.6495 11.0112 11.287 10.9967 10.9539 10.9967C8.1909 10.9967 5.42794 10.9967 2.66498 10.9967C2.33676 10.9967 1.96934 11.0112 1.96444 11.4431C1.95955 11.8847 2.33186 11.8847 2.66008 11.8847C4.04156 11.8847 5.42304 11.8847 6.80452 11.8847ZM6.84371 8.7789C5.43774 8.7789 4.03176 8.7789 2.62579 8.7789C2.30736 8.7789 1.97914 8.79831 1.96934 9.19139C1.95954 9.56506 2.25348 9.66212 2.5915 9.66212C5.40344 9.66212 8.21539 9.66212 11.0273 9.66212C11.3605 9.66212 11.6544 9.56992 11.6495 9.19625C11.6446 8.79831 11.3164 8.7789 10.9979 8.7789C9.61157 8.78376 8.23009 8.7789 6.84371 8.7789ZM8.71997 14.117C9.50869 14.117 10.2925 14.1122 11.0812 14.117C11.4046 14.117 11.6544 14.0151 11.6495 13.6754C11.6397 13.3454 11.385 13.2338 11.0665 13.2338C9.49399 13.2338 7.91656 13.2338 6.34403 13.2338C6.0354 13.2338 5.78556 13.3406 5.78556 13.6948C5.78556 14.0637 6.05499 14.1219 6.35872 14.117C7.14744 14.1122 7.93126 14.117 8.71997 14.117Z" fill="#080909" fill-opacity="0.6"/>
<path d="M28.4034 15.0002C28.4915 15.8106 28.9667 16.1551 29.7701 16.2668C30.9998 16.4318 30.9949 16.4754 30.9949 17.7081C30.9949 18.5524 30.9851 19.3968 30.9997 20.2412C31.0046 20.5518 30.9312 20.712 30.5833 20.7071C29.1431 20.6877 28.4817 21.4981 28.0212 22.7841C27.6881 23.7062 27.6244 24.3807 28.2858 25.1572C28.8687 25.8414 28.81 25.8948 28.1633 26.5354C27.502 27.1905 26.821 27.8311 26.1842 28.5153C25.9196 28.7968 25.7139 28.8162 25.4542 28.5639C24.5039 27.6273 23.5633 27.6904 22.3337 28.1951C21.1971 28.6658 20.6876 29.3015 20.6485 30.4177C20.6338 30.8932 20.4378 31.0146 19.9773 31C18.9143 30.966 17.8463 30.9806 16.7784 31C16.4403 31.0049 16.2591 30.9272 16.2591 30.5535C16.2444 29.2481 15.583 28.5833 14.3191 28.1029C13.2169 27.6807 12.4184 27.6904 11.5905 28.4571C11.223 28.7968 10.9438 28.8162 10.5617 28.394C9.87096 27.6224 9.10673 26.9139 8.35231 26.1957C8.13676 25.987 8.03878 25.8172 8.28862 25.5794C9.34188 24.57 9.239 23.5315 8.63644 22.2746C8.20534 21.372 7.75955 20.8236 6.73568 20.8187C6.06944 20.8187 5.75591 20.5227 5.87348 19.8142C5.96166 19.2804 5.64814 18.5622 5.98616 18.2322C6.32418 17.9022 7.03452 18.1497 7.58319 18.1351C8.30822 18.1205 9.03325 18.1545 9.75828 18.1254C10.1796 18.1108 10.3314 18.1933 10.3461 18.6641C10.4539 22.6094 12.9964 25.6133 16.8861 26.448C21.0942 27.3458 25.5375 24.4681 26.3605 20.2946C26.723 18.47 26.5761 16.6938 25.6894 15.0147C25.5963 14.8158 25.5081 14.6216 25.3955 14.379C26.0666 14.379 26.679 14.4275 27.2815 14.3644C27.8547 14.3062 28.2319 14.4469 28.3985 15.0147L28.4034 15.0002Z" fill="#080909" fill-opacity="0.6"/>
<path d="M28.5411 11.6856C28.3844 11.8603 28.2227 11.9671 27.9533 11.9622C26.4199 11.9428 24.8866 11.9477 23.3533 11.9622C23.1279 11.9622 22.9417 11.8846 22.7507 11.7924C20.0955 10.123 17.357 10.1861 14.4912 11.4915C14.4912 10.6617 14.501 9.89493 14.4912 9.12818C14.4912 8.83216 14.7019 8.76422 14.8978 8.72539C15.809 8.55554 16.098 7.93438 16.147 7.11425C16.1617 6.88616 16.245 6.66293 16.2695 6.43485C16.294 6.19221 16.4214 6.12427 16.6516 6.12427C17.842 6.12912 19.0374 6.13397 20.2278 6.12427C20.5119 6.12427 20.6197 6.25529 20.6099 6.50279C20.5707 7.9732 21.4231 8.60893 22.7262 9.08451C23.6668 9.42906 24.3918 9.50185 25.0972 8.78848C25.6116 8.26923 25.9986 8.36143 26.464 8.89524C27.0568 9.5795 27.7279 10.2104 28.404 10.8218C28.7224 11.1081 28.8204 11.3508 28.5411 11.6953V11.6856Z" fill="#080909" fill-opacity="0.6"/>
<path d="M17.4257 15.1359C17.8127 14.9758 18.3957 15.1165 18.4594 14.4517C18.4741 14.3061 18.67 14.3643 18.7876 14.3643C19.253 14.3595 19.7233 14.3934 20.1887 14.3546C20.703 14.3061 20.997 14.4177 20.8941 15C20.8843 18.0573 20.8794 21.1195 20.8745 24.1768C20.8745 24.9791 20.4467 25.4547 19.591 25.6035C19.591 24.8804 19.5763 24.1671 19.5959 23.4586C19.6057 23.1189 19.5371 22.9587 19.1501 22.983C18.6847 23.017 18.2095 23.0218 17.7441 22.983C17.3179 22.949 17.2494 23.1334 17.264 23.4925C17.2885 24.0846 17.264 24.6766 17.2738 25.2638C17.2787 25.5501 17.2053 25.6035 16.9015 25.5453C16.0148 25.3803 16.0099 25.3997 16.0099 24.531C16.0099 21.8523 16.0246 19.1686 15.9952 16.4899C15.9903 15.9803 16.1275 15.7328 16.6174 15.5824C16.8966 15.495 17.2494 15.4514 17.4208 15.1359H17.4257ZM19.2138 17.0237C18.8415 16.946 18.7337 17.0916 18.7337 17.4507C18.7337 17.8293 18.8905 17.8923 19.2236 17.8972C19.5665 17.8972 19.6498 17.7807 19.6547 17.4604C19.6547 17.1256 19.6008 16.9218 19.2138 17.0237ZM19.1697 18.6542C18.8464 18.5912 18.7386 18.7222 18.7337 19.0619C18.7337 19.4307 18.8758 19.5132 19.2187 19.5229C19.6302 19.5375 19.6351 19.3288 19.6547 19.0182C19.6743 18.6203 19.4489 18.6251 19.1697 18.6542ZM19.6351 20.6439C19.7429 20.1926 19.3951 20.3091 19.1354 20.2799C18.768 20.2363 18.7533 20.4449 18.7337 20.7264C18.7092 21.1632 18.9835 21.1001 19.2579 21.1195C19.6302 21.1486 19.6841 20.9545 19.6351 20.6439ZM18.0528 17.4799C18.1213 17.1547 18.0528 16.9703 17.656 17.0043C17.3718 17.0285 17.122 16.9752 17.1563 17.4071C17.1808 17.7079 17.171 17.9312 17.5825 17.8972C17.8764 17.8729 18.1605 17.9166 18.0528 17.4847V17.4799ZM17.6853 18.6542C17.3963 18.6348 17.1269 18.5863 17.1563 19.0328C17.1759 19.3531 17.2053 19.5326 17.5972 19.5229C17.9303 19.5132 18.0969 19.4598 18.0773 19.0813C18.0577 18.795 18.0528 18.5717 17.6853 18.6591V18.6542ZM17.5923 21.1049C17.8372 21.1146 18.0969 21.1826 18.0724 20.7604C18.0528 20.4546 18.0577 20.2508 17.6511 20.2799C17.3473 20.3042 17.1367 20.2897 17.1563 20.7021C17.171 21.0273 17.2542 21.1729 17.5923 21.1049Z" fill="#080909" fill-opacity="0.6"/>
<path d="M1.86617 19.7461C1.86617 18.7367 1.88087 17.7225 1.85637 16.7131C1.84658 16.354 1.95435 16.2327 2.32176 16.2521C2.91453 16.2861 3.68855 16.058 4.05596 16.3491C4.43807 16.6549 4.16864 17.4556 4.17354 18.0379C4.19313 19.5957 4.16374 21.1583 4.18823 22.7161C4.19313 23.1237 4.09515 23.2742 3.66405 23.2402C3.09579 23.1965 2.34626 23.4246 1.99354 23.1431C1.62123 22.8471 1.89556 22.0755 1.87597 21.5174C1.85637 20.9302 1.87597 20.3382 1.87597 19.7461H1.86617Z" fill="#080909" fill-opacity="0.6"/>
<path d="M15.084 24.8756C14.0356 24.3467 13.242 23.609 12.5709 22.7258C12.4337 22.5463 12.4043 22.3521 12.4043 22.1386C12.4092 21.3816 12.4141 20.6197 12.4043 19.8626C12.4043 19.62 12.4141 19.4259 12.6982 19.3143C13.482 19.0085 14.2561 18.6737 15.084 18.334V24.8756Z" fill="#080909" fill-opacity="0.6"/>
<path d="M21.7656 18.3195C22.6474 18.6884 23.4459 19.0232 24.2444 19.3435C24.4698 19.4357 24.4796 19.6007 24.4747 19.7997C24.4698 20.6004 24.4698 21.4011 24.4747 22.2018C24.4747 22.4008 24.4306 22.5658 24.3081 22.7259C23.6419 23.6092 22.8434 24.3419 21.7656 24.8952C21.7656 23.7644 21.7656 22.7017 21.7656 21.6389C21.7656 20.5761 21.7656 19.4939 21.7656 18.3147V18.3195Z" fill="#080909" fill-opacity="0.6"/>
<path d="M2.98303 15.3739C2.91934 15.3739 2.85566 15.3836 2.79197 15.3739C2.48824 15.3254 2.03755 15.5486 1.91018 15.2526C1.75341 14.8838 1.8318 14.413 2.12573 14.0636C2.41476 13.7191 2.78707 13.5395 3.25247 13.6414C3.91381 13.7919 4.32532 14.4955 4.18325 15.1555C4.13916 15.3642 4.02649 15.3691 3.87462 15.3691C3.57579 15.3691 3.28186 15.3691 2.98303 15.3691V15.3739Z" fill="#080909" fill-opacity="0.6"/>
<path d="M2.05275 24.1382H4.0025C3.69877 25.0408 3.40484 25.924 3.1109 26.8073H2.94924C2.65531 25.9337 2.35648 25.0554 2.04785 24.1382H2.05275Z" fill="#080909" fill-opacity="0.6"/>
<path d="M12.6198 2.71284C12.1985 2.51873 11.4343 2.84872 11.0767 2.46049C10.773 2.1305 11.0914 1.38801 10.9591 1.00464C11.449 1.50933 12.032 2.11109 12.6198 2.71284Z" fill="#080909" fill-opacity="0.6"/>
<path d="M6.18282 3.97925C6.18772 4.28013 4.45352 6.00775 4.13999 6.01745C3.94894 6.0223 3.81667 5.93495 3.72849 5.77966C3.55703 5.48849 3.39047 5.20217 3.21901 4.911C3.06224 4.64409 3.12593 4.40631 3.37577 4.26557C3.60112 4.14425 3.86566 4.19278 3.97343 4.44513C4.18898 4.94497 4.38493 4.7363 4.62988 4.4791C4.88952 4.20249 5.16875 3.94528 5.44309 3.68323C5.59985 3.53765 5.79091 3.53279 5.97707 3.61529C6.12893 3.68323 6.18282 3.81426 6.18282 3.9744V3.97925Z" fill="#080909" fill-opacity="0.6"/>
</g>
<defs>
<clipPath id="clip0_70_13981">
<rect width="31" height="31" fill="white"/>
</clipPath>
</defs>
</svg>
