<svg width="32" height="32" viewBox="0 0 32 32" fill="none" xmlns="http://www.w3.org/2000/svg">
<path d="M7.64159 23.9223C7.8862 25.7032 8.71176 27.1644 10.0877 28.3008C11.4484 29.4272 13.0332 29.9599 14.8016 29.9193C15.1838 29.9092 15.6322 29.8432 15.6475 30.4064C15.6628 30.9746 15.2246 31 14.7965 31C12.0191 31.0051 9.76156 29.9396 8.06966 27.7224C7.85562 27.4434 7.67726 27.3369 7.29505 27.4231C4.2374 28.1182 1.44984 26.6164 0.400045 23.7448C-0.675229 20.8021 0.461198 17.8797 3.27933 16.4337C3.72269 16.2054 3.87048 15.9517 3.86029 15.4596C3.82462 13.8259 3.8399 12.1871 3.85519 10.5484C3.85519 10.2034 3.79914 9.98013 3.43731 9.81778C3.02453 9.63005 2.678 9.31549 2.69838 8.79291C2.71367 8.24496 3.09588 7.93548 3.53924 7.7579C5.12412 7.12878 6.72939 7.13385 8.31427 7.7579C8.75763 7.9304 9.13474 8.25004 9.15512 8.79291C9.17551 9.31549 8.83407 9.63513 8.41619 9.82285C8.05946 9.9852 7.99322 10.2034 7.99322 10.5534C8.0085 12.2582 8.02889 13.9629 7.98812 15.6625C7.96774 16.4287 8.6659 16.3069 8.99714 16.6316C9.28762 16.9157 9.48127 16.6417 9.68512 16.4895C10.2253 16.0887 10.791 15.7285 11.428 15.4951C11.7388 15.3835 11.8662 15.2313 11.8611 14.8711C11.8408 12.2024 11.8459 9.53365 11.8611 6.86495C11.8611 6.51995 11.7694 6.3373 11.4382 6.2409C11.2496 6.18509 11.0713 6.07347 10.9082 5.96185C10.0113 5.36824 9.99598 4.4347 10.8878 3.83602C11.6114 3.34896 12.4472 3.1866 13.2931 3.08513C14.6436 2.9177 15.9737 2.98366 17.2783 3.40477C17.5535 3.49609 17.8236 3.60771 18.0733 3.75484C19.1282 4.38397 19.1791 5.47479 18.0835 5.98722C17.2936 6.35759 17.2171 6.84466 17.2324 7.58033C17.2732 9.93447 17.2477 12.2886 17.2477 14.6428C17.2477 14.9624 17.1866 15.2567 17.5841 15.49C17.9561 15.7031 17.8134 16.2308 17.4057 16.383C16.9012 16.5707 16.1724 16.0836 16.1724 15.5408C16.1673 12.4256 16.1724 9.30534 16.1622 6.19016C16.1622 5.72339 16.3661 5.52045 16.7993 5.40376C17.1407 5.30736 17.7115 5.24648 17.6809 4.84566C17.6554 4.52603 17.0999 4.4347 16.7279 4.35353C15.1481 4.00345 13.5734 3.98316 12.0191 4.47022C11.7694 4.54632 11.4178 4.6275 11.4229 4.91669C11.428 5.13993 11.7643 5.25662 11.9936 5.29214C12.8141 5.41391 12.9721 5.89082 12.9619 6.66201C12.916 9.55395 12.9313 12.4459 12.9568 15.3378C12.9568 15.9061 12.753 16.1547 12.2281 16.3526C9.54243 17.3723 8.03398 19.3561 7.59572 22.177C7.56005 22.4104 7.54986 22.588 7.83014 22.7148C8.54869 23.0294 9.27233 23.3186 10.0418 23.4556C11.2088 23.6636 12.0803 23.1714 12.7937 22.2886C13.6652 21.2029 14.7914 20.6499 16.203 20.7919C17.4108 20.9137 18.5778 21.2029 19.6836 21.7204C20.392 22.0553 21.0647 22.4561 21.6813 22.9431C21.982 23.1816 22.1298 23.4657 21.8546 23.8006C21.5998 24.1151 21.3042 24.0289 21.029 23.8107C19.6582 22.7351 18.0937 22.1415 16.3814 21.8929C15.3978 21.7508 14.5264 21.9132 13.9047 22.725C12.2943 24.8204 10.2814 24.9421 8.02889 23.9934C7.94735 23.9578 7.86581 23.9274 7.78428 23.897C7.76899 23.8919 7.74351 23.902 7.66197 23.9223H7.64159ZM8.48244 17.5804C8.23273 17.4586 8.02379 17.3064 7.78937 17.2506C7.06063 17.0831 6.87717 16.6417 6.89246 15.9314C6.93833 14.1202 6.92304 12.3038 6.90265 10.4926C6.89246 9.72138 6.83131 8.96541 7.98302 8.91975C6.88736 8.20945 4.91518 8.21452 3.88067 8.91975C4.96104 8.96541 4.96614 9.66049 4.95085 10.4368C4.92027 12.3393 4.93047 14.2419 4.95085 16.1445C4.95595 16.6874 4.78268 16.9715 4.2425 17.1795C2.53531 17.8442 1.4957 19.1126 1.15936 20.9289C1.12369 21.1217 1.01667 21.3247 1.28167 21.4464C2.55059 22.0248 3.53414 22.3089 4.50749 21.2029C4.85912 20.8021 5.21585 20.2694 5.75603 20.2389C6.94852 20.1679 7.40717 19.3612 7.85052 18.4632C7.99831 18.1689 8.24292 17.9203 8.49263 17.5854L8.48244 17.5804ZM1.2409 22.6336C1.55686 25.1552 4.44124 27.0629 6.87717 26.4439C7.24409 26.3526 7.16255 26.2054 7.07082 25.9771C6.8466 25.419 6.69881 24.8407 6.5765 24.247C6.36247 23.2019 6.50006 22.1669 6.62746 21.1116C5.99045 21.1319 5.65411 21.5276 5.32287 21.9132C4.83874 22.4764 4.26288 22.8366 3.51885 22.9736C2.73405 23.1156 2.0206 22.8721 1.2409 22.6286V22.6336Z" fill="#0F1010" fill-opacity="0.6"/>
<path d="M29.8618 26.6723C32.1654 26.6216 32.0041 27.1796 31.994 28.8843C31.9789 30.9087 31.8983 31 29.9022 31C25.7285 31 21.5548 31 17.3811 31C16.3478 31 16 30.6398 16 29.5896C16 29.0061 16 28.4227 16 27.8392C16 27.3724 16.1613 26.9615 16.6099 26.8245C17.0485 26.6875 17.0837 26.4338 17.0737 26.0483C17.0333 24.4704 16.988 24.5262 18.5304 24.5364C20.2594 24.5465 21.9934 24.5414 23.7223 24.5364C24.1104 24.5364 24.4834 24.5871 24.5036 25.0488C24.5238 25.5612 24.1356 25.6272 23.7173 25.6221C22.0286 25.6119 20.3451 25.6373 18.6564 25.6069C18.2129 25.6018 18.1171 25.7337 18.112 26.1649C18.102 26.6216 18.2582 26.7078 18.6716 26.7027C20.8239 26.6824 22.9763 26.6926 25.1287 26.6977C25.3756 26.6977 25.5974 26.6824 25.8142 26.5201C27.2911 25.3887 28.027 23.1107 27.5381 21.132C27.0189 19.0468 25.416 17.4791 23.4552 17.1747C23.4552 17.9611 23.4552 18.7424 23.4552 19.5237C23.4501 20.3558 23.0569 20.7667 22.2454 20.7718C21.2675 20.782 20.2896 20.782 19.3168 20.7718C18.5405 20.7667 18.1322 20.3558 18.1272 19.5694C18.1221 17.4842 18.1272 15.399 18.1272 13.3138C18.1272 12.781 18.349 12.365 18.848 12.2331C19.221 12.1316 19.2008 11.9287 19.2008 11.6598C19.1756 9.82318 19.1 10.0109 20.8592 10.0058C20.8794 10.0058 20.9046 10.0058 20.9247 10.0058C22.4722 9.98553 22.4269 9.9348 22.3966 11.5076C22.3865 11.883 22.3966 12.1519 22.8503 12.294C23.3241 12.436 23.4955 12.8774 23.4652 13.3696C23.4451 13.6943 23.4854 13.8668 23.8987 13.9276C27.3365 14.4401 30.2802 17.4791 30.7944 20.995C31.1069 23.1056 30.9708 23.9428 29.8669 26.6774L29.8618 26.6723ZM23.9945 29.9193H29.388C30.9305 29.9193 30.9053 29.9193 30.9355 28.3719C30.9456 27.8646 30.8095 27.753 30.3205 27.753C26.4392 27.7733 22.5529 27.7631 18.6716 27.7631C17.0485 27.7631 17.0686 27.7631 17.0585 29.3765C17.0585 29.8179 17.1745 29.9295 17.608 29.9244C19.7402 29.899 21.8673 29.9143 23.9995 29.9143L23.9945 29.9193ZM27.2256 26.6672C28.1564 26.7146 28.8083 26.3391 29.1814 25.5409C30.6784 22.3395 29.5644 18.2706 26.6358 16.1904C25.4261 15.3279 24.0752 14.9119 22.6033 14.851C22.2404 14.8358 21.8976 14.9221 21.8724 15.3482C21.8421 15.8302 22.2051 15.9215 22.5932 15.9266C22.6386 15.9266 22.6839 15.9266 22.7243 15.9266C24.6851 16.0788 26.288 16.921 27.4776 18.4989C29.0755 20.6247 29.4586 23.7398 27.2205 26.6622L27.2256 26.6672ZM20.7433 19.6962C21.1415 19.6962 21.5397 19.681 21.9379 19.6962C22.2504 19.7114 22.4218 19.6658 22.4017 19.2751C22.3664 18.6511 22.3815 18.022 22.4017 17.3979C22.4067 17.1341 22.3361 17.0428 22.069 16.9616C21.2473 16.713 20.7937 16.0991 20.8038 15.3634C20.8138 14.6278 21.2524 14.0799 22.1143 13.8008C22.316 13.7349 22.4067 13.6943 22.4017 13.466C22.3966 13.1615 22.1899 13.2376 22.0337 13.2376C21.2574 13.2326 20.4812 13.2579 19.7099 13.2275C19.3067 13.2123 19.1857 13.3087 19.1907 13.7349C19.221 15.2112 19.2008 16.6876 19.2008 18.164C19.2008 19.1821 19.7167 19.6912 20.7483 19.6912L20.7433 19.6962ZM21.3179 11.5076C21.4893 10.9444 21.0356 11.1321 20.7332 11.0814C20.1737 10.985 20.2997 11.3605 20.2543 11.6852C20.1737 12.2483 20.5366 12.1266 20.8592 12.1722C21.4086 12.2483 21.3532 11.9033 21.3229 11.5076H21.3179Z" fill="#0F1010" fill-opacity="0.6"/>
<path d="M11 1.50928C10.9953 2.31832 10.282 3.01855 9.4742 2.99963C8.66643 2.98543 7.98149 2.26628 8.00038 1.45723C8.01928 0.676572 8.70895 0 9.49309 0C10.3009 0 11.0047 0.704959 11 1.50928ZM9.49309 0.998298C9.25218 1.04561 9.03961 1.16862 9.01127 1.4525C8.98293 1.76949 9.1766 1.97294 9.47892 1.98713C9.78124 2.00133 9.98437 1.80735 9.98909 1.49508C9.98909 1.21121 9.78597 1.06454 9.49309 1.00303V0.998298Z" fill="#0F1010" fill-opacity="0.6"/>
<path d="M7.99941 4.53738C7.97577 5.34143 7.24285 6.03196 6.44372 5.99886C5.63515 5.96575 4.9637 5.23264 5.00152 4.42859C5.03935 3.64819 5.7439 2.98603 6.52411 3.00022C7.33269 3.01441 8.02305 3.73333 7.99941 4.54211V4.53738ZM7.00169 4.49008C6.94968 4.21103 6.79364 4.01711 6.51465 4.01238C6.2073 4.01238 6.00397 4.19684 6.0087 4.51373C6.0087 4.79751 6.2073 4.97724 6.48155 4.9867C6.78891 4.99616 6.95913 4.79278 7.00169 4.49008Z" fill="#0F1010" fill-opacity="0.6"/>
</svg>
