<svg width="37" height="37" viewBox="0 0 37 37" fill="none" xmlns="http://www.w3.org/2000/svg">
<path d="M6.99138 26.6725C6.51621 26.7247 6.03519 26.5451 5.60695 26.2208C4.39852 25.3115 3.17835 24.4137 1.98164 23.487C0.80254 22.5719 0.691082 21.4888 1.61794 20.3131C1.88192 19.9771 2.14003 19.6412 2.40401 19.3169C2.70905 18.9462 3.08449 18.8825 3.46579 19.1663C3.8295 19.4385 3.8119 19.815 3.56552 20.1625C3.31914 20.51 3.06103 20.8459 2.77945 21.1645C2.36295 21.6278 2.38641 22.0217 2.89677 22.4039C4.07588 23.2785 5.24912 24.1589 6.41649 25.045C6.83886 25.3636 7.19669 25.3346 7.5252 24.9234C9.42585 22.5198 11.3265 20.1162 13.2271 17.7125C13.5322 17.3245 13.4911 16.9827 13.0922 16.6874C11.8838 15.778 10.6695 14.8745 9.46691 13.9594C9.03868 13.635 8.68671 13.7161 8.36993 14.1158C7.9769 14.6139 7.57213 15.1062 7.18496 15.6101C6.87992 16.0097 6.50448 16.1661 6.08212 15.8707C5.64802 15.5637 5.71841 15.1409 6.01759 14.7587C6.46929 14.1853 6.90925 13.6003 7.39614 13.0501C8.16462 12.1813 9.26746 12.0423 10.2061 12.7199C11.5259 13.6756 12.8165 14.6776 14.1188 15.6564C14.4942 15.9402 14.8228 16.3283 14.811 16.7569C14.7993 17.394 15.1923 17.4056 15.6088 17.4693C16.5005 17.6083 17.3921 17.7299 18.2838 17.8747C18.4891 17.9094 18.6475 17.8747 18.8176 17.7762C19.9439 17.0812 21.1876 16.8495 22.4957 16.919C22.877 16.9364 23.141 16.9538 23.1879 16.4267C23.229 15.9634 23.5751 15.5869 23.9681 15.2915C25.2176 14.359 26.4554 13.4034 27.7108 12.4825C28.708 11.7469 29.8519 11.8512 30.6263 12.8068C32.6267 15.2799 34.6036 17.7762 36.557 20.2899C37.2492 21.1819 37.1202 22.2881 36.2402 23.0005C34.9145 24.0662 33.5418 25.0798 32.1632 26.076C31.5942 26.4872 30.9079 26.5393 30.2684 26.2382C29.8695 26.047 29.7053 26.1629 29.4824 26.4814C29.0952 27.049 28.5731 27.5066 28.0217 27.9178C27.787 28.0973 27.7694 28.219 27.8926 28.4854C28.6494 30.1535 27.963 31.335 26.1152 31.5377C25.8336 31.5667 25.7808 31.6999 25.6811 31.891C25.3408 32.5281 24.8246 32.9567 24.0737 33.0204C23.8039 33.0436 23.6631 33.1305 23.5575 33.3911C23.1762 34.3236 22.4664 34.7927 21.434 34.6364C21.1465 34.5958 21.1172 34.7638 21.0233 34.9028C20.073 36.2233 18.7942 36.3681 17.5975 35.2503C17.1927 34.868 16.8877 34.6885 16.2776 34.9607C15.4035 35.3546 14.4884 34.9202 14.0015 34.0514C13.8607 33.7965 13.7492 33.5533 13.3914 33.5765C13.3034 33.5765 13.2154 33.5127 13.1274 33.4838C12.3531 33.2289 12.2416 32.2617 11.6843 31.9721C11.0097 31.6188 10.3762 31.335 10.0594 30.6342C9.94207 30.3735 9.81888 30.2577 9.52557 30.1766C8.43446 29.8812 7.81264 28.8329 8.00623 27.7209C8.15875 26.8405 7.98863 26.6436 7.01484 26.6783L6.99138 26.6725ZM16.7117 19.091C16.1368 18.9983 15.6499 18.9404 15.1747 18.8361C14.5705 18.6971 14.0953 18.7319 13.7375 19.3458C13.4618 19.8323 13.0453 20.2378 12.6992 20.6838C11.4966 22.2012 10.2999 23.7187 9.09734 25.2304C8.90962 25.462 8.7395 25.6532 9.01521 25.9486C9.34959 26.3019 9.47278 25.908 9.6253 25.7806C10.1415 25.3636 10.6167 24.9002 11.127 24.4774C11.9718 23.7882 13.0922 23.7708 13.8724 24.4021C14.4062 24.8365 14.3476 25.6068 14.6937 26.0239C15.0809 26.493 15.7965 26.7189 16.0136 27.4023C16.0195 27.4255 16.0371 27.4429 16.0371 27.466C16.0957 27.7556 16.2482 27.8946 16.565 28.0047C17.5681 28.3464 18.055 29.2094 17.8556 30.2172C17.791 30.5473 17.8556 30.7384 18.1137 30.9759C18.8352 31.6478 18.9115 32.5339 18.3483 33.3216C18.1723 33.5707 17.9846 33.7502 18.3366 33.9935C18.6827 34.2309 18.935 34.7696 19.4746 34.4336C19.8618 34.1962 20.0613 33.8603 19.592 33.478C19.4629 33.3737 19.3397 33.2579 19.2283 33.1421C18.9056 32.8003 18.8528 32.4239 19.1931 32.0821C19.5098 31.7636 19.8794 31.8041 20.2079 32.0937C20.5482 32.3891 20.8649 32.7077 21.211 32.9915C21.475 33.2058 21.7977 33.3795 22.091 33.0552C22.3784 32.7424 22.3197 32.4297 22.0088 32.1285C21.4281 31.5725 20.8649 30.9991 20.29 30.4373C19.9381 30.0897 19.8149 29.7017 20.2138 29.3426C20.5951 29.0009 20.9823 29.0993 21.3342 29.4584C21.9326 30.0666 22.5544 30.6458 23.1469 31.2597C23.4871 31.6072 23.8508 31.7926 24.2439 31.4103C24.631 31.028 24.3788 30.6863 24.0679 30.3851C23.2877 29.6264 22.5075 28.8677 21.7214 28.1147C21.3401 27.7498 21.1054 27.3386 21.563 26.91C21.9854 26.5104 22.3843 26.7305 22.7362 27.078C23.5634 27.8888 24.3905 28.6997 25.2235 29.5048C25.6107 29.8812 26.0917 30.4199 26.5962 29.8986C27.042 29.4353 26.5493 28.943 26.1562 28.5954C24.2263 26.8811 22.2904 25.184 20.3604 23.4696C20.1141 23.2553 19.9205 23.1916 19.6096 23.3654C19.0933 23.6492 18.5536 23.904 18.0081 24.1299C16.8759 24.5933 15.5736 24.2689 14.9225 23.3886C14.2479 22.4792 14.3711 21.2687 15.2217 20.2957C15.6264 19.8323 16.1309 19.4906 16.7117 19.0852V19.091ZM28.9485 13.4497C28.8664 13.4845 28.7198 13.5192 28.6083 13.6003C27.3412 14.5502 26.08 15.5 24.8187 16.4557C24.3905 16.78 24.5196 17.1333 24.7953 17.4866C26.6666 19.8497 28.532 22.207 30.3975 24.5759C30.7319 25.0045 31.0897 25.103 31.5473 24.7554C32.7322 23.8577 33.9172 22.9657 35.1139 22.0738C35.5304 21.761 35.6184 21.4251 35.284 21.0023C33.401 18.6218 31.5179 16.2414 29.6349 13.8609C29.4706 13.6524 29.2829 13.4787 28.9427 13.4497H28.9485ZM15.9549 21.9522C15.9491 22.7399 16.7293 23.1337 17.5095 22.8094C18.0492 22.5835 18.5654 22.2881 19.0933 22.0275C20.2548 21.4599 20.249 21.4657 21.2345 22.3402C22.9298 23.8461 24.6428 25.3346 26.3322 26.8405C26.5845 27.0664 26.7429 27.1301 27.0362 26.8811C27.5935 26.4061 28.139 25.9254 28.5614 25.3172C28.7843 24.9929 28.7491 24.767 28.5086 24.4658C26.9892 22.5719 25.4934 20.6722 23.9857 18.7666C23.8391 18.5755 23.6983 18.3902 23.4285 18.3844C22.6483 18.3554 21.8563 18.2512 21.0878 18.4365C19.24 18.8883 17.8321 20.093 16.3656 21.1934C16.1074 21.3904 15.9432 21.7031 15.9549 21.9522ZM9.95967 28.7866C10.1767 28.804 10.3058 28.6592 10.4466 28.5317C11.2385 27.8251 12.0304 27.1185 12.8282 26.4119C13.0981 26.1687 13.2975 25.9254 12.9984 25.5837C12.7227 25.2709 12.3883 25.323 12.1126 25.5547C11.262 26.2671 10.4348 27.0027 9.60183 27.7325C9.36719 27.9352 9.36719 28.19 9.48451 28.4333C9.57837 28.6244 9.71916 28.7924 9.9714 28.7924L9.95967 28.7866ZM11.919 30.4836C12.136 30.501 12.271 30.3562 12.4117 30.2345C13.0746 29.6611 13.7258 29.082 14.3886 28.5086C14.635 28.2943 14.8462 28.0684 14.5764 27.7382C14.2948 27.3965 13.9487 27.3907 13.6436 27.6514C12.9162 28.2537 12.2123 28.885 11.5083 29.5164C11.3441 29.6611 11.2502 29.8407 11.391 30.0782C11.5201 30.2925 11.655 30.4662 11.9248 30.4894L11.919 30.4836ZM13.9194 32.1806C13.9194 32.1806 14.0543 32.1806 14.1188 32.1285C14.8638 31.4798 15.6147 30.8369 16.3421 30.165C16.5298 29.9913 16.5122 29.7191 16.3421 29.5221C16.125 29.2673 15.8141 29.2499 15.5795 29.4411C14.8462 30.0318 14.1423 30.6516 13.4325 31.2713C13.2565 31.4277 13.2271 31.6362 13.3445 31.8447C13.4559 32.03 13.5967 32.1864 13.9194 32.1806ZM16.7351 31.891C16.2424 32.0474 15.9256 32.505 15.5091 32.8467C15.2862 33.0262 15.1278 33.2521 15.3624 33.4954C15.5678 33.7097 15.8493 33.6633 16.0664 33.478C16.4301 33.1768 16.7762 32.8583 17.1223 32.5455C17.2514 32.4297 17.3276 32.2849 17.1986 32.1169C17.093 31.9837 16.9756 31.8736 16.7293 31.891H16.7351Z" fill="#0E0F0F"/>
<path d="M10.333 7.34164C10.321 3.31149 13.8745 0.0110843 18.2486 2.76996e-05C22.7071 -0.0110289 26.333 3.28938 26.333 7.3527C26.333 11.3331 22.701 14.6611 18.3511 14.6667C13.9107 14.6667 10.3511 11.416 10.333 7.34164ZM11.8112 7.32505C11.8112 10.6144 14.7373 13.3012 18.3149 13.3067C21.8685 13.3122 24.8609 10.5702 24.8368 7.33058C24.8127 4.0357 21.8866 1.34894 18.321 1.34894C14.7433 1.34894 11.8112 4.04123 11.8112 7.32505Z" fill="#0E0F0F"/>
<path d="M4.36116 18.6666C3.92042 18.6503 3.6725 18.3945 3.66699 18.0083C3.66699 17.6274 3.89287 17.3445 4.3281 17.3336C4.76333 17.3227 4.99472 17.573 5.00023 17.981C5.00574 18.3891 4.76884 18.6231 4.36116 18.6666Z" fill="#0E0F0F"/>
<path d="M18.2514 12.0001C17.7794 12.0001 17.5157 11.7391 17.5642 11.3272C17.6406 10.6833 17.4254 10.2715 16.6272 10.0743C16.294 9.99305 16.0233 9.73782 15.8358 9.46519C15.5998 9.12295 15.5859 8.78071 15.9469 8.50808C16.3287 8.22385 16.7382 8.28186 17.0436 8.61249C17.4462 9.03014 17.9599 9.11135 18.5569 9.03594C18.9109 8.98954 19.1122 8.85032 19.1538 8.53708C19.1885 8.24125 18.9803 8.10783 18.6957 8.02663C18.189 7.88741 17.6822 7.7598 17.1755 7.62638C16.3009 7.39435 15.822 6.88389 15.7525 6.12981C15.6762 5.32932 16.051 4.67964 16.9256 4.3374C17.3977 4.15178 17.6406 3.97196 17.5712 3.51371C17.5018 3.07286 17.6545 2.67261 18.2792 2.66681C18.897 2.66101 19.0914 3.06126 19.0358 3.49631C18.9733 3.97776 19.1746 4.23299 19.73 4.3548C20.0562 4.42441 20.3061 4.63904 20.4935 4.88266C20.7365 5.1901 20.6462 5.47433 20.3686 5.71216C20.0909 5.94999 19.7647 5.94419 19.4592 5.74696C19.133 5.53814 18.772 5.42213 18.3694 5.42213C17.9946 5.42213 17.6128 5.46853 17.5642 5.88038C17.5226 6.23422 17.8003 6.37924 18.1543 6.46045C18.5569 6.55326 18.9664 6.64607 19.3759 6.72148C20.2922 6.8955 20.8822 7.33055 20.9794 8.13684C21.0974 9.07655 20.6948 9.77263 19.6883 10.1555C19.1608 10.3585 19.015 10.6021 19.0358 11.0604C19.0636 11.7217 18.8276 11.9711 18.2445 11.9885L18.2514 12.0001Z" fill="#0E0F0F"/>
</svg>
