<svg width="32" height="31" viewBox="0 0 32 31" fill="none" xmlns="http://www.w3.org/2000/svg">
<g clip-path="url(#clip0_69_13933)">
<path d="M20.9875 15.0696C20.9875 16.122 20.9875 17.0447 20.9875 17.9625C20.9875 19.3417 20.3822 19.9183 19.0069 19.827C18.7599 19.8126 18.726 19.8991 18.7357 20.0961C18.7454 20.322 18.7454 20.5526 18.7357 20.7785C18.697 21.8597 17.9318 22.5469 16.8519 22.3979C16.5178 22.3547 16.3919 22.4268 16.266 22.7007C16.1836 22.8833 16.0529 23.0899 15.8834 23.1716C14.91 23.6618 14.2756 24.5267 13.525 25.2524C12.9391 25.8146 12.3144 26.2327 11.4669 26.2759C11.0941 26.2952 10.7502 26.4633 10.4597 26.7132C10.2272 26.9151 10.0723 27.0833 10.2853 27.4196C10.5226 27.7993 10.3919 28.1837 10.0916 28.4864C9.36524 29.2265 8.63885 29.9617 7.88824 30.6729C7.44756 31.091 6.93909 31.0958 6.49841 30.6633C5.14732 29.3466 3.82045 28.0107 2.48388 26.6796C2.2466 26.4441 2.14006 26.1846 2.41124 25.9347C2.68243 25.6897 2.93425 25.8194 3.16669 26.0501C4.38219 27.2659 5.61706 28.4624 6.81802 29.6926C7.13279 30.0146 7.30713 29.9906 7.59284 29.6782C8.08195 29.1448 8.60011 28.6354 9.13279 28.1453C9.40398 27.8954 9.43788 27.7416 9.15216 27.4629C7.27323 25.6224 5.40882 23.7675 3.5541 21.8982C3.27807 21.6194 3.12311 21.6291 2.86645 21.9078C2.35798 22.4508 1.83497 22.9842 1.27807 23.484C0.948775 23.7771 1.00204 23.9693 1.30713 24.2096C1.46693 24.3345 1.60737 24.4931 1.74296 24.6469C1.9173 24.8487 1.92214 25.0553 1.72844 25.2524C1.53957 25.4446 1.30229 25.4638 1.11342 25.2956C0.774441 24.9929 0.430615 24.6805 0.169114 24.3201C-0.121443 23.9213 -0.0245904 23.4888 0.314393 23.1428C1.04078 22.4075 1.77686 21.6771 2.51778 20.9563C2.84708 20.6391 3.2587 20.5334 3.65095 20.7977C3.97541 21.014 4.11584 20.8986 4.29018 20.6391C4.49841 20.322 4.64369 19.9904 4.63885 19.606C4.63885 19.1735 4.63885 18.741 4.63885 18.3085C4.63885 17.53 4.91488 16.862 5.47178 16.3142C6.09163 15.7039 6.71633 15.0984 7.32166 14.4737C7.74781 14.0316 8.21754 13.6808 8.83739 13.5607C9.08437 13.5126 9.12311 13.4454 9.06984 13.157C8.79865 11.6866 8.83255 10.2017 9.02625 8.72641C9.13279 7.89987 9.82044 7.40491 10.3822 6.85708C10.7744 6.47265 11.0989 6.06899 11.1812 5.50195C11.22 5.23284 11.1909 5.10309 10.8955 5.0214C10.3483 4.86282 10.1207 4.45916 10.1304 3.89212C10.1449 2.96466 10.1304 2.03721 10.1352 1.10495C10.1449 0.384134 10.5323 -0.000302158 11.2539 -0.000302158C14.0819 -0.00510761 16.91 -0.00510761 19.7381 -0.000302158C20.479 -0.000302158 20.8568 0.364913 20.8616 1.08573C20.8713 2.05643 20.8616 3.02714 20.8616 3.99303C20.8616 4.43033 20.7018 4.81477 20.295 4.9301C19.772 5.07426 19.8204 5.41545 19.8737 5.77586C19.9221 6.10743 20.0723 6.40537 20.295 6.65526C20.8083 7.25113 20.9924 7.93831 20.9875 8.71199C20.973 10.2401 20.9875 11.7635 20.9778 13.2916C20.9778 13.7577 21.0069 14.0124 21.5928 13.7385C22.6485 13.2435 23.6171 13.4694 24.4451 14.2623C25.1473 14.9351 25.8301 15.6318 26.5226 16.3142C26.8519 16.641 27.0989 17.0158 27.22 17.4627C27.3023 17.7655 27.2926 18.1067 27.7672 18.1067C27.9318 18.1067 28.0045 18.3181 28.0045 18.4959C28.0045 18.6929 27.9415 18.9236 27.7381 18.9236C27.2732 18.9188 27.3604 19.2119 27.3459 19.4906C27.3313 19.8078 27.3943 20.1057 27.5444 20.3844C27.743 20.7497 27.9028 21.1293 28.4597 20.7497C28.7938 20.5238 29.1909 20.6872 29.4766 20.9707C30.2175 21.6963 30.9585 22.4172 31.68 23.162C32.1013 23.5993 32.1013 24.1039 31.6703 24.5364C29.6267 26.5931 27.5686 28.6354 25.5008 30.6681C25.0408 31.1198 24.542 31.0958 24.0674 30.6393C23.3507 29.9521 22.6534 29.2409 21.9512 28.5393C21.6122 28.1981 21.4621 27.7945 21.7333 27.3716C21.927 27.0688 21.7769 26.9391 21.588 26.7661C21.2539 26.4585 20.8568 26.2952 20.4112 26.2663C19.7575 26.2183 19.2151 25.9588 18.7502 25.5167C18.2708 25.0602 17.8059 24.5892 17.3265 24.1279C17.0747 23.8828 16.9342 23.6137 17.2248 23.3254C17.496 23.0563 17.7526 23.2101 17.9754 23.4407C18.2079 23.6762 18.4548 23.8972 18.6776 24.1423C19.3023 24.8295 19.9706 25.3869 20.9875 25.4302C21.496 25.4542 21.9609 25.781 22.3192 26.1702C22.5226 26.3961 22.6485 26.3865 22.8616 26.1702C24.2756 24.743 25.7042 23.3302 27.1328 21.9174C27.2829 21.7684 27.3749 21.6627 27.1812 21.4705C26.5129 20.8121 26.3047 19.9712 26.3919 19.087C26.5033 17.9577 26.1401 17.0927 25.2587 16.3767C24.7163 15.9346 24.2514 15.3964 23.7526 14.8966C23.3313 14.4785 22.818 14.3968 22.2563 14.4881C21.9802 14.5314 21.8689 14.6323 22.1158 14.8774C22.4306 15.1801 22.7357 15.4877 23.0359 15.8C23.2345 16.0019 23.2926 16.2277 23.0698 16.4536C22.8326 16.689 22.5856 16.6554 22.3628 16.4392C21.9318 16.0211 21.5105 15.5934 20.9778 15.0696H20.9875ZM11.0069 13.8923C11.0069 13.2916 10.9972 12.7822 11.0069 12.268C11.0117 11.9605 11.1667 11.7586 11.5057 11.7586C11.8253 11.7586 11.927 11.9845 11.9657 12.2488C11.9899 12.4122 11.9754 12.5804 11.9754 12.7438C11.9754 15.2618 11.9754 17.7799 11.9754 20.2931C11.9754 20.4373 11.9802 20.5815 11.9754 20.7256C11.956 21.1677 12.1594 21.4801 12.6001 21.4849C13.0698 21.4849 13.2684 21.1725 13.2635 20.7016C13.2539 18.3277 13.2635 15.9586 13.2635 13.5847C13.2635 13.4213 13.2539 13.2531 13.2732 13.0898C13.3071 12.8399 13.4621 12.6621 13.7187 12.6477C14.0141 12.6284 14.174 12.8255 14.2224 13.0946C14.2514 13.2531 14.2369 13.4213 14.2369 13.5895C14.2369 15.5694 14.2369 17.5492 14.2369 19.5291C14.2369 20.3316 14.2369 21.1389 14.2369 21.9414C14.2369 22.3739 14.4984 22.6094 14.8955 22.5998C15.2587 22.5901 15.5057 22.3643 15.5057 21.9558C15.5057 21.6243 15.5057 21.2975 15.5057 20.9659C15.5057 18.4286 15.5057 15.8913 15.5008 13.3541C15.5008 12.984 15.5928 12.6525 16.0141 12.6621C16.3967 12.6717 16.4984 12.9888 16.4839 13.3348C16.479 13.4982 16.4839 13.6664 16.4839 13.8298C16.4839 16.1412 16.4839 18.4527 16.4839 20.7641C16.4839 21.1533 16.6388 21.4032 17.0117 21.4897C17.312 21.5618 17.5589 21.408 17.68 21.1581C17.7623 20.9851 17.7526 20.7593 17.7526 20.5574C17.7526 18.2076 17.7526 15.8529 17.7526 13.503C17.7526 13.1186 17.743 12.6717 18.2514 12.6813C18.7599 12.6909 18.7309 13.1474 18.7309 13.5271C18.7309 15.0312 18.7309 16.5401 18.7309 18.0442C18.7309 18.5199 18.789 18.9524 19.3895 18.9476C19.956 18.9476 20.019 18.5295 20.019 18.0778C20.019 14.9014 20.0141 11.725 20.019 8.5438C20.019 8.06806 19.9125 7.64518 19.5977 7.28958C19.1425 6.77059 18.91 6.15549 18.9003 5.48272C18.9003 5.08868 18.7212 5.06945 18.4161 5.07426C17.4815 5.08868 16.5468 5.07426 15.6074 5.07907C15.2393 5.07907 14.8325 5.08387 14.8374 4.59371C14.8374 4.10836 15.2442 4.10836 15.6122 4.10836C16.9003 4.10836 18.1933 4.09875 19.4815 4.11797C19.8398 4.12278 19.9415 4.01706 19.9318 3.66626C19.9076 2.90219 19.9125 2.13813 19.9318 1.37886C19.9367 1.07612 19.8737 0.936762 19.525 0.941567C16.8422 0.955984 14.1594 0.951178 11.4766 0.941567C11.1618 0.941567 11.0941 1.0569 11.0989 1.34042C11.1134 2.14293 11.1183 2.95025 11.0989 3.75276C11.0892 4.07473 11.2248 4.12758 11.5008 4.11797C11.9996 4.10356 12.4984 4.10356 12.9972 4.11797C13.2974 4.12758 13.5299 4.25733 13.5299 4.59371C13.5299 4.92529 13.3071 5.1127 13.0069 5.06945C12.3434 4.97815 12.0432 5.18479 12.0577 5.88638C12.0577 6.1699 11.8786 6.47265 11.7236 6.73214C11.433 7.21749 10.9972 7.5779 10.5904 7.96234C10.0916 8.42847 9.84466 8.96668 9.87371 9.66347C9.91245 10.5477 9.8834 11.4367 9.8834 12.3257C9.8834 13.0609 10.2224 13.5655 11.0117 13.9019L11.0069 13.8923ZM11.0069 15.06C10.479 15.5886 10.0577 16.0115 9.63642 16.4296C9.41366 16.6458 9.17153 16.6987 8.9294 16.468C8.67274 16.2229 8.7696 15.9875 8.98267 15.7712C9.14248 15.6078 9.32166 15.4637 9.46209 15.2859C9.64127 15.06 10.1062 14.8726 9.94635 14.6179C9.76718 14.3296 9.29744 14.4497 8.95362 14.5026C8.63885 14.5506 8.39187 14.7524 8.16911 14.9735C7.68485 15.454 7.23449 15.9778 6.70664 16.4103C5.84466 17.1119 5.49599 17.9625 5.60253 19.0629C5.68969 19.9471 5.49115 20.7881 4.83739 21.4561C4.67275 21.6243 4.66306 21.73 4.83739 21.903C6.28534 23.3254 7.72359 24.7574 9.15216 26.1942C9.34103 26.3865 9.46209 26.3961 9.64611 26.1942C10.019 25.7858 10.4984 25.4542 11.0311 25.4254C11.9996 25.3725 12.6485 24.8775 13.2442 24.2096C13.4621 23.9645 13.7914 23.7819 13.927 23.4984C14.1207 23.0947 13.5057 23.0419 13.4524 22.6959C13.4088 22.4412 13.3023 22.3307 12.9488 22.3931C11.8108 22.5853 11.0166 21.8693 11.0117 20.7208C11.002 18.8899 11.0117 17.0543 11.0117 15.0648L11.0069 15.06ZM28.7987 21.6291C28.6921 21.7156 28.5904 21.7828 28.5081 21.8645C26.6001 23.7579 24.7018 25.656 22.789 27.5398C22.571 27.756 22.5904 27.8858 22.7987 28.0876C23.3798 28.645 23.956 29.2121 24.5129 29.7935C24.7454 30.0386 24.8907 29.9954 25.1086 29.7791C26.9924 27.8954 28.881 26.0116 30.7793 24.1423C31.0166 23.9068 31.002 23.7675 30.7696 23.5512C30.1982 23.013 29.651 22.446 29.0941 21.8934C29.0069 21.8069 28.9149 21.73 28.8035 21.6291H28.7987Z" fill="#141515" fill-opacity="0.6"/>
<path d="M6.64385 7.08317C6.92472 7.14084 7.12327 7.29942 7.10874 7.57814C7.09421 7.84724 6.90535 8.04427 6.61963 8.02985C6.33876 8.01543 6.15474 7.82802 6.16443 7.5445C6.17411 7.26098 6.38234 7.12162 6.64869 7.07837L6.64385 7.08317Z" fill="#141515" fill-opacity="0.6"/>
<path d="M3.74381 14.1041C3.68569 14.3876 3.52589 14.5846 3.24502 14.5702C2.97383 14.5558 2.77528 14.3732 2.78981 14.0849C2.80918 13.811 2.98836 13.6236 3.27892 13.6332C3.57431 13.6428 3.70022 13.8494 3.74381 14.1041Z" fill="#141515" fill-opacity="0.6"/>
<path d="M9.6462 4.86304C9.92707 4.9207 10.1256 5.07928 10.1062 5.3628C10.0869 5.63191 9.89801 5.82413 9.6123 5.80971C9.33143 5.7953 9.14741 5.59827 9.16194 5.31956C9.17162 5.04084 9.3847 4.90148 9.6462 4.86304Z" fill="#141515" fill-opacity="0.6"/>
<path d="M19.0993 28.0302C19.0218 28.2896 18.8814 28.4963 18.586 28.4723C18.3051 28.4482 18.1259 28.2656 18.1405 27.9821C18.155 27.6986 18.3632 27.5304 18.6393 27.5448C18.9201 27.5592 19.0703 27.7562 19.0993 28.0302Z" fill="#141515" fill-opacity="0.6"/>
<path d="M27.0995 10.942C27.0365 11.1966 26.9106 11.3985 26.6104 11.3937C26.3101 11.3937 26.1406 11.1966 26.1406 10.9323C26.1406 10.6584 26.3246 10.4758 26.6152 10.4758C26.9058 10.4758 27.0462 10.668 27.0995 10.942Z" fill="#141515" fill-opacity="0.6"/>
<path d="M20.8623 27.3862C20.8236 27.6457 20.6928 27.8379 20.4023 27.8619C20.0972 27.8859 19.9229 27.6889 19.9035 27.4294C19.8793 27.1555 20.0633 26.9633 20.349 26.9441C20.6347 26.9249 20.7994 27.0979 20.8623 27.3862Z" fill="#141515" fill-opacity="0.6"/>
<path d="M7.81161 27.9148C7.79708 28.2608 7.59853 28.429 7.33703 28.429C7.03679 28.429 6.82856 28.2367 6.84793 27.9148C6.8673 27.5976 7.05616 27.439 7.38546 27.4631C7.69538 27.4871 7.80192 27.6841 7.81645 27.9148H7.81161Z" fill="#141515" fill-opacity="0.6"/>
<path d="M22.9496 5.94922C23.2305 6.00688 23.4097 6.15585 23.4048 6.44418C23.4 6.73731 23.2063 6.91031 22.9351 6.9007C22.6736 6.89109 22.475 6.7229 22.4847 6.42015C22.4944 6.12221 22.6929 6.00208 22.9496 5.94922Z" fill="#141515" fill-opacity="0.6"/>
<path d="M8.51771 6.37201C8.4935 6.62189 8.33369 6.7997 8.05282 6.8045C7.76226 6.80931 7.59762 6.6315 7.59277 6.34318C7.59277 6.05004 7.77679 5.87224 8.05282 5.87705C8.31432 5.87705 8.51771 6.03082 8.51771 6.3672V6.37201Z" fill="#141515" fill-opacity="0.6"/>
<path d="M11.7528 27.6699C11.714 27.939 11.5881 28.1312 11.2927 28.1456C10.9925 28.1601 10.8133 27.9823 10.7988 27.718C10.7842 27.4537 10.944 27.2614 11.2443 27.2422C11.5494 27.2278 11.6753 27.42 11.7576 27.6699H11.7528Z" fill="#141515" fill-opacity="0.6"/>
<path d="M16.8044 27.8621C17.061 27.9341 17.2596 28.0639 17.245 28.3618C17.2354 28.6598 17.0271 28.8135 16.7608 28.8039C16.4847 28.7943 16.3007 28.6021 16.3153 28.3186C16.3298 28.0399 16.5138 27.8861 16.7995 27.8621H16.8044Z" fill="#141515" fill-opacity="0.6"/>
<path d="M24.4117 8.18857C24.0824 8.16935 23.9469 7.99155 23.9565 7.70803C23.9662 7.41009 24.1357 7.26592 24.4311 7.28515C24.7265 7.29956 24.8766 7.46775 24.8669 7.75608C24.8524 8.04921 24.6732 8.18377 24.4117 8.18857Z" fill="#141515" fill-opacity="0.6"/>
<path d="M5.90329 9.01015C5.81613 9.32731 5.64179 9.47147 5.34639 9.43303C5.03647 9.38978 4.93477 9.18314 4.97835 8.90443C5.02194 8.64013 5.20111 8.51999 5.46746 8.54402C5.7677 8.57285 5.87424 8.77949 5.90329 9.01015Z" fill="#141515" fill-opacity="0.6"/>
<path d="M3.69019 12.7632C3.41416 12.7151 3.24951 12.5662 3.25919 12.2682C3.27372 11.9559 3.47227 11.8309 3.75314 11.8454C4.0098 11.8598 4.16476 12.0183 4.15992 12.2923C4.15508 12.5902 3.99043 12.7392 3.69019 12.7632Z" fill="#141515" fill-opacity="0.6"/>
<path d="M15.3802 28.3954C15.3608 28.6693 15.2204 28.8471 14.9202 28.8567C14.6151 28.8663 14.4601 28.6885 14.465 28.4002C14.465 28.1407 14.5957 27.9725 14.8814 27.9629C15.1768 27.9533 15.3512 28.083 15.3851 28.3954H15.3802Z" fill="#141515" fill-opacity="0.6"/>
<path d="M26.1114 9.25047C26.063 9.54841 25.908 9.70699 25.6078 9.69258C25.3269 9.68297 25.1816 9.50997 25.1768 9.25528C25.1768 8.97656 25.3172 8.78435 25.632 8.78915C25.9322 8.79396 26.0678 8.98137 26.1114 9.24567V9.25047Z" fill="#141515" fill-opacity="0.6"/>
<path d="M4.90117 10.6154C4.8818 10.8604 4.73168 11.0286 4.43144 11.0286C4.12151 11.0286 3.98592 10.846 3.9956 10.5529C4.00529 10.2838 4.15056 10.1348 4.42659 10.13C4.72199 10.1252 4.90117 10.255 4.90601 10.6154H4.90117Z" fill="#141515" fill-opacity="0.6"/>
<path d="M27.7582 12.7392C27.7582 13.0515 27.5596 13.2197 27.2981 13.2149C27.0414 13.2149 26.8429 13.0467 26.8477 12.744C26.8574 12.446 27.0366 12.2778 27.3029 12.2778C27.5741 12.2778 27.7436 12.4604 27.7533 12.7392H27.7582Z" fill="#141515" fill-opacity="0.6"/>
<path d="M27.7239 15.1132C27.4382 15.1036 27.2542 14.9594 27.2348 14.6711C27.2154 14.3684 27.3994 14.2098 27.6852 14.2002C27.9467 14.1905 28.1258 14.3347 28.1404 14.6038C28.1597 14.8873 28.029 15.0748 27.7191 15.1132H27.7239Z" fill="#141515" fill-opacity="0.6"/>
<path d="M3.53543 15.8725C3.54996 16.2569 3.34657 16.4203 3.08022 16.4203C2.84778 16.4203 2.64923 16.2809 2.6347 15.9974C2.62017 15.6995 2.77998 15.5121 3.06085 15.4928C3.35141 15.4736 3.51121 15.6562 3.53543 15.8725Z" fill="#141515" fill-opacity="0.6"/>
<path d="M3.1572 17.3333C3.4526 17.3861 3.64146 17.5111 3.65115 17.8138C3.66083 18.1262 3.45745 18.2799 3.1911 18.2799C2.95381 18.2799 2.76495 18.131 2.75042 17.8522C2.73105 17.5447 2.91507 17.4149 3.1572 17.3333Z" fill="#141515" fill-opacity="0.6"/>
<path d="M4.04326 19.6398C4.04326 19.9377 3.8883 20.0915 3.5929 20.0915C3.30234 20.0915 3.1377 19.9425 3.1377 19.6446C3.1377 19.3515 3.2975 19.1929 3.5929 19.1929C3.89314 19.1929 4.03358 19.3563 4.04326 19.6446V19.6398Z" fill="#141515" fill-opacity="0.6"/>
<path d="M21.3169 5.83373C21.036 5.82412 20.8665 5.68476 20.852 5.39163C20.8423 5.0985 20.9924 4.93511 21.2878 4.9303C21.5736 4.9255 21.7527 5.05525 21.7576 5.3628C21.7576 5.65593 21.6171 5.81451 21.3121 5.83373H21.3169Z" fill="#141515" fill-opacity="0.6"/>
<path d="M13.0456 28.6356C12.7454 28.6212 12.5952 28.4674 12.6049 28.1743C12.6146 27.8812 12.7744 27.7274 13.0698 27.737C13.3652 27.7466 13.5153 27.91 13.5105 28.2031C13.5105 28.5107 13.3313 28.6308 13.0408 28.6356H13.0456Z" fill="#141515" fill-opacity="0.6"/>
<path d="M28.2371 16.675C28.2129 16.9104 28.024 17.0738 27.7577 17.0594C27.4913 17.0402 27.3121 16.8624 27.3315 16.5644C27.3509 16.2713 27.5349 16.1031 27.8109 16.1223C28.0773 16.1416 28.2516 16.3194 28.2371 16.675Z" fill="#141515" fill-opacity="0.6"/>
<path d="M12.6394 3.01296C12.315 2.99854 12.1358 2.84477 12.1309 2.5228C12.1261 2.22006 12.3247 2.06148 12.5813 2.04226C12.8719 2.02303 13.1043 2.19123 13.1188 2.50358C13.1334 2.81113 12.9445 2.98413 12.6394 3.01296Z" fill="#141515" fill-opacity="0.6"/>
<path d="M28.9204 24.1715C28.6008 24.1522 28.4507 23.9793 28.4604 23.6573C28.4701 23.3545 28.6735 23.2056 28.9301 23.2008C29.2304 23.196 29.4435 23.4026 29.4386 23.6957C29.4338 23.9793 29.2594 24.1859 28.9204 24.1715Z" fill="#141515" fill-opacity="0.6"/>
</g>
<defs>
<clipPath id="clip0_69_13933">
<rect width="32" height="31" fill="white"/>
</clipPath>
</defs>
</svg>
