<svg width="28" height="28" viewBox="0 0 28 28" fill="none" xmlns="http://www.w3.org/2000/svg">
<g clip-path="url(#clip0_69_13964)">
<path d="M1.76975 9.83148C0.353595 6.64178 0.81827 3.89249 3.06641 2.09522C5.20834 0.382482 8.10261 0.315751 10.2622 1.93062C12.6786 3.73679 13.1875 6.35706 11.7802 9.84483C12.0324 9.84483 12.2758 9.81813 12.5104 9.84927C12.8423 9.89376 13.006 9.74251 13.1698 9.47114C14.3602 7.48703 15.5684 5.51181 16.7677 3.5366C17.3297 2.61572 17.6572 2.53564 18.591 3.09618C18.7016 3.16291 18.8255 3.22074 18.9273 3.30082C19.1486 3.47431 19.215 3.26968 19.3212 3.15401C19.4805 2.98051 19.3566 2.91378 19.2283 2.80701C18.591 2.28652 18.5512 1.94397 19.0291 1.28112C19.7903 0.219363 20.7255 0.0147238 21.8349 0.667197C22.9988 1.35229 24.1671 2.03294 25.331 2.71804C26.0656 3.15401 26.163 3.64336 25.6541 4.34181C25.4461 4.63097 25.2336 4.92458 25.0124 5.20485C24.6937 5.60523 24.2954 5.76094 23.8263 5.49846C23.5962 5.36945 23.49 5.38725 23.3572 5.63193C23.2023 5.91664 23.3749 5.98782 23.5564 6.09459C23.636 6.14352 23.7201 6.18801 23.7998 6.23695C24.8088 6.84642 24.9017 7.18896 24.2468 8.17657C24.0255 8.51022 24.1051 8.65258 24.3176 8.96844C25.4505 10.65 27.0791 11.9757 27.6632 14.0488C28.9555 18.6221 26.3533 23.7381 21.7641 25.5175C20.8303 25.8823 19.8611 26.087 18.8654 26.1626C18.5689 26.1848 18.4627 26.2694 18.5025 26.5585C18.5158 26.6697 18.5025 26.7854 18.5025 26.8966C18.4981 27.6707 18.175 27.9999 17.4138 27.9999C14.6656 27.9999 11.9218 27.9999 9.17357 27.9999C6.99181 27.9999 4.81005 27.9999 2.62829 27.9999C0.893503 27.9999 -0.243845 26.5719 0.0438112 24.8636C0.610272 21.5004 1.12805 18.1283 1.67239 14.7651C1.72107 14.4715 1.64141 14.3914 1.33605 14.378C0.504061 14.3424 0.0039819 13.7864 -0.00486906 12.95C-0.00929454 12.4607 -0.00486906 11.9668 -0.00486906 11.473C-0.00486906 10.3742 0.473083 9.87597 1.54847 9.84927C1.61486 9.84927 1.68566 9.84038 1.76532 9.83593L1.76975 9.83148ZM2.07953 18.0126C3.31424 18.0126 4.51354 18.0126 5.71727 18.0126C6.03591 18.0126 6.35897 17.8925 6.35012 18.4797C6.34127 19.0803 5.9828 18.9112 5.69072 18.9157C4.86316 18.929 4.03559 18.9157 3.20803 18.9157C1.86711 18.9157 1.87153 18.9157 1.69894 20.2547C1.65911 20.5795 1.66796 20.7574 2.09281 20.7396C2.91595 20.6996 3.74794 20.753 4.57108 20.7174C4.97379 20.6996 4.97379 20.8865 4.97379 21.1845C4.97379 21.487 4.96494 21.665 4.56665 21.6472C3.66385 21.6116 2.76105 21.6427 1.85826 21.6338C1.606 21.6338 1.47324 21.6561 1.43341 21.9764C1.30065 22.9862 1.12805 23.9872 0.946609 24.9881C0.72976 26.1804 1.45554 27.0746 2.67255 27.0835C3.78334 27.0879 4.88971 27.0835 6.0005 27.0835C6.50501 27.0835 6.76169 26.8299 6.77054 26.3227C6.77939 25.5976 7.1113 25.2729 7.85035 25.2684C8.15129 25.2684 8.45222 25.2684 8.75315 25.2684C9.32846 25.2684 9.66775 24.9659 9.77101 24.3609C9.10719 24.3609 8.45222 24.3653 7.79725 24.3609C7.13343 24.352 6.79267 24.0139 6.77496 23.3599C6.77054 23.1731 6.77496 22.9818 6.77496 22.7949C6.77496 21.9497 7.08475 21.6383 7.92116 21.6383C9.44353 21.6383 10.9615 21.6383 12.5015 21.6383C12.2758 20.1658 12.09 18.7288 11.82 17.3053C11.6784 16.5579 11.8112 15.6993 11.0942 15.1254C11.0101 15.0587 10.957 14.8674 10.9836 14.7606C11.0898 14.3424 10.842 14.3736 10.5676 14.378C8.19997 14.3825 5.83234 14.378 3.46028 14.378C2.92922 14.378 2.61649 14.6435 2.52208 15.1743C2.52208 15.1966 2.54863 15.2277 2.57961 15.2811C3.08854 15.2811 3.61517 15.2945 4.1418 15.2767C4.42061 15.2678 4.5224 15.3301 4.53125 15.6415C4.54452 16.0641 4.45159 16.2687 3.99134 16.1975C3.77006 16.162 3.53994 16.1931 3.31424 16.1931C2.70057 16.1931 2.33768 16.4912 2.22557 17.0873C2.17247 17.3809 2.13264 17.6745 2.07953 18.0037V18.0126ZM11.7404 6.68181C11.7448 3.92808 9.50991 1.67705 6.77496 1.67705C4.06215 1.67705 1.82285 3.91029 1.80958 6.62398C1.7963 9.38216 4.01789 11.651 6.74399 11.6599C9.48336 11.6688 11.7315 9.42665 11.7404 6.68181ZM24.3795 16.5668C24.3928 15.6726 24.2113 14.9742 23.8706 14.3069C23.7422 14.0577 23.6272 13.9999 23.3484 14.1289C22.6403 14.4537 21.8703 14.5382 21.1622 14.2179C20.6356 13.9777 20.4143 14.1556 20.2328 14.5827C20.1311 14.8229 19.8213 14.9831 19.9452 15.3078C20.2063 16.0196 20.0558 16.6246 19.4363 17.1496C18.9318 17.5811 18.4582 17.3675 18.0113 17.025C17.8298 16.8871 17.7103 16.8737 17.5864 17.1184C17.3784 17.5188 17.1439 17.9058 16.896 18.2795C16.5951 18.7333 16.0685 18.8534 15.6171 18.5509C15.2276 18.2884 14.8559 17.9993 14.4974 17.6967C14.0991 17.3631 14.0239 16.9494 14.2939 16.4867C14.4664 16.1931 14.6302 15.8995 14.8072 15.6103C14.9621 15.3567 15.1878 15.1432 14.7497 14.8941C14.3204 14.6494 14.347 15.0498 14.223 15.2099C14.0416 15.4502 13.9088 15.7215 13.7495 15.9751C13.5813 16.2465 13.3468 16.4556 13.0193 16.4155C12.6166 16.3666 12.5989 16.5534 12.652 16.8604C12.8865 18.3107 13.1211 19.7609 13.3424 21.2157C13.3955 21.5627 13.5459 21.6561 13.8911 21.6516C15.055 21.6294 16.2234 21.6561 17.3873 21.6338C17.9227 21.6249 18.321 21.794 18.4759 22.3189C18.5467 22.5636 18.6751 22.5369 18.8432 22.5191C21.9322 22.2433 24.3707 19.5518 24.3751 16.5623L24.3795 16.5668ZM18.9583 11.0638C18.976 10.3742 19.2415 9.64019 19.8124 9.04851C20.6267 8.20326 21.618 7.83402 22.7731 8.11874C23.3971 8.27444 23.4369 7.74505 23.6228 7.43809C23.844 7.07775 23.3926 7.07775 23.2377 6.97988C21.5649 5.94333 19.8655 4.95128 18.1971 3.91029C17.821 3.67451 17.6926 3.75458 17.4846 4.10158C16.1924 6.26364 14.8869 8.41235 13.5548 10.5522C13.3291 10.9125 13.4309 11.0282 13.7274 11.2195C15.2586 12.1982 16.781 13.1947 18.3078 14.1867C19.0866 14.6939 19.0734 14.685 19.6 13.8976C19.8168 13.5728 19.8213 13.3593 19.5602 13.039C19.1353 12.5185 18.9583 11.8779 18.9583 11.0638ZM25.2912 11.5887C25.123 12.2738 24.9239 12.821 24.5256 13.257C24.3574 13.4394 24.4857 13.5506 24.5654 13.6885C25.3487 15.032 25.4593 16.4689 25.1097 17.9503C24.3884 20.9932 22.1579 22.9551 18.9141 23.4311C18.6839 23.4622 18.5246 23.4711 18.4405 23.7647C18.321 24.1874 17.9759 24.3742 17.5289 24.3698C16.8562 24.3609 16.188 24.3698 15.5064 24.3698C15.6215 24.9748 15.9667 25.2773 16.542 25.2773C17.104 25.2773 17.6705 25.2951 18.2325 25.2773C22.0163 25.1438 24.7911 23.3822 26.3356 19.9122C27.6145 17.0294 27.3623 14.2312 25.2912 11.5976V11.5887ZM11.612 10.7879C11.2137 10.699 10.9615 10.7968 10.6959 11.0371C8.53188 12.9989 5.40749 13.1146 3.13279 11.2551C2.59289 10.8102 2.07068 10.7257 1.45111 10.7524C1.07937 10.7657 0.902354 10.9437 0.902354 11.3173C0.902354 11.8289 0.91563 12.3405 0.902354 12.8477C0.889077 13.3148 1.10593 13.4838 1.5529 13.4794C4.78792 13.4705 8.02295 13.4705 11.258 13.4838C11.5368 13.4838 11.674 13.3726 11.7581 13.1502C11.851 12.91 11.612 12.8877 11.4969 12.7988C10.9703 12.3984 10.8818 11.9491 11.2314 11.3841C11.3509 11.1928 11.4748 11.0104 11.6164 10.7879H11.612ZM24.3795 11.1839C24.3707 9.9427 23.3351 8.9284 22.1004 8.93729C20.8657 8.94619 19.8567 9.98274 19.8655 11.2284C19.8744 12.4695 20.9055 13.4838 22.1447 13.475C23.3749 13.4661 24.3884 12.4251 24.3795 11.1839ZM12.6387 23.4578C14.1434 23.4578 15.648 23.4444 17.1527 23.4667C17.5112 23.4711 17.6307 23.3866 17.6262 23.0085C17.6262 22.6437 17.5333 22.5414 17.1616 22.5414C14.1522 22.5592 11.1473 22.5547 8.13801 22.5414C7.77955 22.5414 7.66006 22.6214 7.66448 22.9996C7.66448 23.3644 7.75742 23.4711 8.12916 23.4667C9.63382 23.4444 11.1385 23.4578 12.6431 23.4578H12.6387ZM12.5856 27.0879C14.108 27.0879 15.6303 27.0746 17.1527 27.0968C17.5156 27.1013 17.6262 27.0123 17.6218 26.6386C17.6218 26.2694 17.52 26.1715 17.1527 26.1759C14.1434 26.1893 11.1385 26.1893 8.12916 26.1759C7.76627 26.1759 7.65563 26.2605 7.66006 26.6341C7.66006 27.0034 7.75742 27.1013 8.12916 27.0968C9.61612 27.0746 11.0987 27.0879 12.5856 27.0879ZM25.0566 3.62557C23.7821 2.87374 22.5075 2.12636 21.233 1.37454C20.4231 0.898528 20.4408 0.911875 19.8655 1.6548C19.6354 1.95287 19.7106 2.05519 19.9983 2.21534C21.056 2.81591 22.1004 3.43873 23.1537 4.05264C23.9089 4.49158 24.5433 4.34774 25.0566 3.62112V3.62557ZM12.382 11.4197C12.2006 11.4775 12.1431 11.6688 12.0369 11.8111C11.8598 12.0558 12.1121 12.1048 12.2272 12.1759C14.316 13.5417 16.4137 14.8941 18.4981 16.2687C18.7769 16.4556 18.8919 16.3844 19.0645 16.1442C19.2902 15.8372 19.0557 15.7571 18.8786 15.637C16.8031 14.2846 14.7231 12.9367 12.6476 11.5887C12.5679 11.5398 12.4883 11.4864 12.3776 11.4152L12.382 11.4197ZM14.7408 25.2506C14.6317 24.6604 14.2894 24.3653 13.7141 24.3653C12.9839 24.3653 12.2537 24.3653 11.5235 24.3653C10.9423 24.3653 10.6325 24.6604 10.5942 25.2506H14.7408ZM16.1304 17.7857C16.2676 17.5544 16.3783 17.3631 16.4933 17.1718C16.8533 16.5697 16.719 16.1012 16.0906 15.766C16.0906 15.766 16.0552 15.7527 16.0419 15.7393C15.9092 15.637 15.8472 15.6859 15.7454 15.815C14.94 16.8559 14.9444 16.9227 15.9932 17.6879C16.0242 17.7101 16.0552 17.7323 16.1304 17.7857ZM12.7317 13.5906C12.6033 13.5684 12.5546 13.6129 12.5104 13.684C12.3378 13.9732 12.1652 14.2624 11.9882 14.5471C11.9306 14.6405 11.9306 14.7384 12.0059 14.8007C12.298 15.032 12.5768 15.3523 12.9131 15.4368C13.1344 15.4947 13.2406 15.0498 13.3734 14.8229C13.484 14.6272 13.807 14.4136 13.6123 14.2001C13.3689 13.9332 13.006 13.773 12.7317 13.5906ZM20.3346 3.47431C20.1443 3.49656 20.0868 3.65671 20.0071 3.77238C19.8921 3.95477 20.0868 3.99481 20.1797 4.05264C20.8347 4.45747 21.4941 4.84896 22.1535 5.24489C22.304 5.33386 22.45 5.48957 22.5783 5.19595C22.6713 4.98242 22.7288 4.84896 22.4633 4.70215C21.8039 4.34626 21.1666 3.95032 20.5205 3.57219C20.4585 3.5366 20.3922 3.50101 20.3302 3.46987L20.3346 3.47431Z" fill="#0D0D0E" fill-opacity="0.6"/>
<path d="M6.31924 15.8107C6.43431 16.2466 6.12895 16.1755 5.84572 16.2066C5.43415 16.2555 5.43857 16.042 5.4076 15.7261C5.36777 15.2635 5.61117 15.3035 5.9298 15.2724C6.39005 15.2279 6.34137 15.4993 6.31924 15.8062V15.8107Z" fill="#0D0D0E" fill-opacity="0.6"/>
<path d="M10.2536 4.6844C10.1783 4.77782 10.1252 4.8579 10.0633 4.92463C8.7312 6.41494 7.39471 7.9008 6.07149 9.39556C5.87234 9.61799 5.79268 9.5824 5.62451 9.35997C5.07575 8.63928 4.52257 7.92749 3.92956 7.24684C3.64633 6.92209 3.8676 6.82867 4.06675 6.65517C4.29687 6.45498 4.45619 6.35266 4.67746 6.69076C4.95627 7.11338 5.32801 7.47817 5.61124 7.89635C5.83251 8.2211 5.95642 8.16327 6.18655 7.90525C7.23096 6.71745 8.29308 5.543 9.35077 4.3641C9.43928 4.26623 9.51894 4.06604 9.70481 4.20394C9.8951 4.3463 10.0633 4.5198 10.2491 4.6844H10.2536Z" fill="#0D0D0E" fill-opacity="0.6"/>
<path d="M23.4772 11.184C23.4904 11.9269 22.8841 12.5586 22.1451 12.5675C21.406 12.5809 20.7776 11.9714 20.7688 11.2285C20.7555 10.4856 21.3618 9.85384 22.1008 9.84494C22.8399 9.8316 23.4683 10.4411 23.4772 11.184ZM22.5832 11.184C22.5213 10.9571 22.4018 10.748 22.1053 10.7614C21.8486 10.7747 21.6848 10.9393 21.6804 11.1973C21.6804 11.4821 21.8574 11.6556 22.1407 11.6511C22.3973 11.6467 22.5301 11.4687 22.5832 11.184Z" fill="#0D0D0E" fill-opacity="0.6"/>
</g>
<defs>
<clipPath id="clip0_69_13964">
<rect width="28" height="28" fill="white"/>
</clipPath>
</defs>
</svg>
