<svg width="31" height="31" viewBox="0 0 31 31" fill="none" xmlns="http://www.w3.org/2000/svg">
<g clip-path="url(#clip0_68_13922)">
<path d="M18.824 5.41633C19.772 4.74683 20.7804 4.5822 21.8215 5.15292C22.8572 5.72364 23.2956 6.64557 23.2518 7.80897C23.2299 8.35225 23.2682 8.90102 23.1915 9.43881C23.1093 10.0534 22.7805 10.5693 22.3038 10.9699C22.0079 11.2168 22.0572 11.3376 22.4298 11.4034C22.7038 11.4528 22.9778 11.5351 23.2463 11.6119C24.5067 11.9851 25.2794 12.94 25.3287 14.257C25.4054 16.3259 25.3945 16.0844 23.5916 16.1009C23.0545 16.1009 22.3367 15.8649 22.0353 16.2106C21.7722 16.507 21.9695 17.2094 21.9585 17.7362C21.9585 17.9393 21.9585 18.1423 21.9585 18.3399C21.9695 18.8667 21.7065 19.1191 21.1859 19.1191C20.0789 19.1191 18.9665 19.1191 17.8595 19.1191C17.4321 19.1191 17.0814 18.9819 17.0814 18.488C17.0814 18.0161 17.4157 17.8679 17.8267 17.9118C18.2651 17.9612 18.3911 17.7801 18.3527 17.3685C18.3253 17.1106 18.3527 16.8417 18.3747 16.5838C18.4075 16.26 18.6103 16.068 18.9336 16.0625C19.2843 16.0515 19.5035 16.249 19.5419 16.6003C19.5693 16.9021 19.5857 17.2039 19.5638 17.5057C19.5254 18.0929 19.9529 17.8679 20.2214 17.9008C20.5118 17.9338 20.8132 17.9502 20.742 17.4948C20.7256 17.396 20.742 17.2917 20.742 17.1929C20.742 14.7509 19.909 13.8235 17.476 13.5491C17.2294 13.5217 17.1198 13.593 17.0321 13.818C16.78 14.4326 16.5115 15.0363 16.2375 15.6344C16.0895 15.9527 16.0073 16.3423 15.5306 16.3478C15.0209 16.3533 14.9387 15.9472 14.7853 15.607C14.5223 15.0198 14.2537 14.4381 14.0181 13.8399C13.903 13.5491 13.7386 13.4832 13.4646 13.5601C13.3496 13.593 13.2345 13.6369 13.1194 13.6589C10.2096 14.1637 10.226 15.5905 10.2753 17.5716C10.2918 18.1368 10.6973 17.8514 10.9384 17.8899C11.1795 17.9283 11.4919 17.9832 11.4535 17.5441C11.4316 17.2862 11.4425 17.0173 11.4535 16.7594C11.4699 16.3807 11.6124 16.068 12.0453 16.0625C12.5111 16.057 12.6536 16.3807 12.67 16.7868C12.67 16.8253 12.67 16.8692 12.67 16.9076C12.6536 17.4563 12.5111 18.0655 13.4482 17.9502C13.7222 17.9173 13.914 18.2575 13.8756 18.5703C13.8263 18.9435 13.5578 19.1191 13.1961 19.1246C12.3686 19.1301 11.5412 19.1246 10.7192 19.1246C9.61224 19.1246 9.05694 18.5777 9.05329 17.4838C9.05329 17.0393 9.21221 16.4356 8.99301 16.1997C8.72449 15.9143 8.11622 16.1228 7.6559 16.1064C7.21203 16.0954 6.76815 16.1064 6.32428 16.1064C5.97904 16.1064 5.72697 15.9472 5.69957 15.585C5.66121 14.9594 5.60093 14.3229 5.74889 13.7137C5.99 12.7369 6.58732 12.0345 7.56274 11.7052C7.80934 11.6229 8.0669 11.579 8.3135 11.4912C8.51077 11.4199 8.81765 11.4747 8.88341 11.2552C8.94369 11.0522 8.65873 10.9534 8.52721 10.8107C8.03402 10.2894 7.77646 9.67478 7.76002 8.96138C7.74906 8.45651 7.7381 7.95165 7.76002 7.44678C7.85866 5.37792 10.0397 4.18709 11.8426 5.20231C12.0015 5.29011 12.144 5.60291 12.3741 5.18585C13.8756 2.44749 17.5143 2.78772 18.687 5.2956C18.7089 5.34499 18.7692 5.3834 18.8076 5.42731L18.824 5.41633ZM17.8212 8.57724C17.8212 7.9297 17.2896 7.27666 16.6759 7.16142C16.5553 7.13947 16.4896 7.19983 16.4128 7.2602C15.5909 7.91872 14.6428 8.17115 13.6071 8.09981C13.3057 8.07786 13.2016 8.16018 13.1961 8.48944C13.1687 9.95466 14.1003 11.0248 15.4703 11.0522C16.8403 11.0796 17.8102 10.0644 17.8212 8.57724ZM12.0947 12.6436C11.5357 12.3912 10.7959 12.4845 10.774 11.6558C10.5493 11.6613 10.2424 11.4308 10.1493 11.8314C10.0561 12.2595 9.77116 12.3967 9.38208 12.468C8.97109 12.5448 8.56557 12.6546 8.16006 12.7698C7.28327 13.0278 6.88871 13.593 6.89419 14.504C6.89419 14.7783 6.94351 14.8991 7.25587 14.8881C7.83674 14.8607 8.42309 14.8716 9.00397 14.8881C9.22865 14.8881 9.36016 14.8387 9.46976 14.6192C10.0013 13.571 10.8726 12.9509 12.0892 12.6491L12.0947 12.6436ZM18.9391 12.6436C19.8159 12.8576 20.6543 13.1759 21.0489 13.9113C21.564 14.8771 22.2983 14.9869 23.208 14.8826C23.2463 14.8826 23.2902 14.8826 23.3285 14.8826C24.1724 14.8826 24.3478 14.6302 24.0464 13.818C23.8656 13.3186 23.5258 12.9619 22.9997 12.8192C22.5394 12.693 22.0736 12.5668 21.6023 12.468C21.2407 12.3912 20.9721 12.254 20.8845 11.8534C20.8297 11.6174 20.2652 11.5132 20.2543 11.6943C20.194 12.5064 19.4816 12.3857 18.9391 12.6491V12.6436ZM17.6787 6.33278C17.591 5.21329 16.4896 4.37916 15.3443 4.47245C14.2154 4.56574 13.1413 5.66328 13.2071 6.64009C13.218 6.81569 13.2619 6.88155 13.4427 6.88703C14.2921 6.92545 15.0867 6.82118 15.7498 6.22302C16.4128 5.61938 16.4512 5.61938 17.2513 6.08583C17.3718 6.15717 17.4924 6.22302 17.6787 6.33278ZM11.9412 8.20957C11.1083 8.57724 10.2315 8.63212 9.3492 8.61017C9.06425 8.60468 8.96013 8.687 8.97657 8.98333C9.02041 9.70771 9.64512 10.3498 10.374 10.3937C11.4754 10.454 12.1001 9.60893 11.9412 8.20957ZM19.0706 8.20957C19.0158 8.64858 19.0158 9.02724 19.1419 9.39491C19.361 10.0644 20.0186 10.476 20.731 10.3992C21.4051 10.3278 21.9859 9.71868 22.0407 9.03272C22.0572 8.79675 22.0736 8.59919 21.7229 8.61566C20.8242 8.6431 19.931 8.58822 19.0706 8.20957ZM9.00945 7.37544C9.85336 7.44129 10.6589 7.40836 11.4425 7.11752C11.8755 6.95837 11.8316 6.7663 11.5521 6.48643C11.1302 6.06388 10.6205 5.9212 10.0671 6.09132C9.46976 6.27241 9.09713 6.69496 9.00945 7.37544ZM21.1201 7.40288C21.2626 7.40288 21.4051 7.38641 21.5421 7.40288C22.0298 7.46873 22.0846 7.26568 21.8983 6.87606C21.4379 5.9212 20.1173 5.7401 19.4268 6.53033C19.2021 6.78277 19.1638 6.95837 19.5419 7.09008C20.057 7.27117 20.5721 7.41385 21.1256 7.39739L21.1201 7.40288ZM15.5087 14.2296C15.7333 13.7357 15.9032 13.3625 16.0731 12.9839C16.3745 12.2924 16.3471 12.2595 15.5854 12.276C15.4484 12.276 15.3004 12.276 15.1689 12.243C14.725 12.1442 14.736 12.4186 14.8346 12.682C15.0209 13.165 15.2456 13.6314 15.5141 14.2296H15.5087ZM13.3989 11.6394C13.1468 11.3705 12.9824 11.1729 12.7961 11.0028C12.6974 10.9095 12.67 10.6461 12.4673 10.7723C12.2919 10.8821 12.0399 11.0138 12.0508 11.2388C12.0618 11.4583 12.3412 11.376 12.4947 11.4363C12.7413 11.5296 13.0208 11.5571 13.3989 11.6394ZM18.4897 10.712C18.2212 11.0083 17.9637 11.2882 17.6294 11.6558C17.9472 11.579 18.139 11.5406 18.3308 11.4912C18.5555 11.4308 18.9172 11.4473 18.961 11.2662C19.0213 11.0083 18.6706 10.8985 18.4952 10.7174L18.4897 10.712Z" fill="#0F1010" fill-opacity="0.6"/>
<path d="M26.9396 18.6637C26.9396 16.3808 26.9396 14.1638 26.9396 11.9468C26.9396 11.5462 26.9286 11.1401 27.0821 10.7559C27.4328 9.87242 28.3589 9.32914 29.2466 9.48829C30.2823 9.68036 30.9783 10.4596 30.9838 11.4968C30.9947 14.0815 31.0002 16.6607 30.9838 19.2454C30.9838 20.1289 31.0605 21.0179 30.8961 21.9015C30.7427 22.7466 30.4413 23.5258 29.9481 24.2228C28.452 26.3465 26.9451 28.4593 25.449 30.5775C25.2024 30.9232 24.923 31.1702 24.5065 30.8684C24.0955 30.572 24.2106 30.2153 24.4572 29.8696C25.8655 27.883 27.2629 25.891 28.6877 23.9154C29.4329 22.8838 29.8001 21.7643 29.7837 20.4801C29.7563 17.5332 29.7782 14.5918 29.7727 11.645C29.7727 11.0797 29.4494 10.6901 28.9945 10.6681C28.5288 10.6462 28.2 11.0084 28.1616 11.5791C28.1506 11.7382 28.1616 11.9029 28.1616 12.062C28.1616 14.1199 28.1232 16.1778 28.1726 18.2357C28.2164 19.8655 27.7287 21.221 26.5341 22.3514C25.7285 23.1142 25.0052 23.9593 24.2489 24.7715C23.9475 25.0953 23.6078 25.3258 23.2187 24.9471C22.857 24.5959 23.0598 24.2502 23.3447 23.9484C24.216 23.0264 25.0874 22.099 25.9587 21.1771C26.3423 20.771 26.5176 20.332 26.1943 19.8216C25.9258 19.3991 25.4929 19.1905 25.0545 19.4649C23.6516 20.3594 22.183 21.1771 21.098 22.4941C19.9965 23.8331 19.58 25.4355 19.2567 27.0818C19.0539 28.1245 18.8347 29.1672 18.621 30.2098C18.5991 30.3251 18.5607 30.4458 18.5224 30.5556C18.4018 30.8848 18.1552 31.0549 17.821 30.9616C17.4922 30.8738 17.2839 30.6104 17.3606 30.2757C17.8045 28.3001 18.0566 26.2751 18.6977 24.349C19.3334 22.4338 20.5774 20.9521 22.2487 19.8326C22.731 19.5088 23.2187 19.1796 23.7009 18.8558C25.0435 17.9503 25.4655 17.9174 26.9286 18.6582L26.9396 18.6637Z" fill="#0F1010" fill-opacity="0.6"/>
<path d="M4.16521 18.6635C5.2886 17.813 6.31882 18.1258 7.34905 18.8776C8.54916 19.7501 9.84242 20.5019 10.8124 21.6708C12.0782 23.1964 12.5934 25.0128 12.955 26.9061C13.1578 27.9707 13.3715 29.0353 13.6071 30.0944C13.7113 30.5554 13.5852 30.8792 13.1359 30.9725C12.6865 31.0657 12.5002 30.731 12.418 30.3414C12.0892 28.7884 11.7659 27.2353 11.4261 25.6878C10.9713 23.6189 9.8205 22.033 8.07788 20.8531C7.48057 20.4471 6.87778 20.041 6.27498 19.6404C5.69959 19.2562 5.22284 19.2837 4.8776 19.7062C4.51044 20.1507 4.56524 20.6611 5.03652 21.1659C5.79275 21.9781 6.55446 22.7793 7.31617 23.586C7.44221 23.7177 7.56825 23.8494 7.68881 23.9811C7.97924 24.2994 8.12172 24.6506 7.74909 24.9799C7.40385 25.2872 7.08053 25.1171 6.80106 24.8262C6.31882 24.3104 5.83111 23.8 5.34888 23.2897C3.67932 21.519 2.84454 19.4154 2.84454 16.9788C2.84454 15.327 2.84454 13.6697 2.84454 12.0179C2.84454 11.8369 2.84454 11.6558 2.83358 11.4747C2.80618 10.9643 2.49931 10.6735 2.02255 10.6844C1.55128 10.6954 1.24988 11.0082 1.23344 11.5076C1.217 12.0509 1.23344 12.5942 1.23344 13.1429C1.23344 15.5246 1.26632 17.9062 1.22248 20.2824C1.19508 21.6928 1.55128 22.9385 2.42807 24.0415C2.70207 24.3872 2.9377 24.7659 3.17882 25.1335C3.38158 25.4409 3.30486 25.7317 3.03086 25.9293C2.75687 26.1268 2.42807 26.1158 2.21983 25.8415C1.01973 24.272 -0.0598224 22.6696 0.000456948 20.5239C0.082656 17.5221 0.0168968 14.5149 0.0278566 11.5076C0.0278566 10.4649 0.718329 9.68568 1.75404 9.48812C2.63631 9.318 3.56242 9.86128 3.92409 10.7448C4.07205 11.1125 4.07205 11.4911 4.07205 11.8753C4.07205 13.9332 4.07205 15.991 4.07205 18.0489C4.07205 18.241 4.01177 18.444 4.15973 18.669L4.16521 18.6635Z" fill="#0F1010" fill-opacity="0.6"/>
<path d="M6.08816 30.9891C6.02788 30.9616 5.89088 30.9452 5.81964 30.8628C5.39221 30.3854 5.01409 29.8696 4.71818 29.2988C4.57022 29.0245 4.70174 28.7775 4.92093 28.6184C5.15109 28.4537 5.43605 28.4373 5.63881 28.6568C6.07172 29.1287 6.46628 29.6446 6.74027 30.2263C6.90467 30.5775 6.543 31.011 6.08816 30.9945V30.9891Z" fill="#0F1010" fill-opacity="0.6"/>
<path d="M18.8021 1.18541C19.2788 1.19639 19.5583 1.69028 19.2678 2.08539C19.0432 2.38722 18.7692 2.66709 18.4623 2.89209C18.0842 3.17196 17.5745 2.8866 17.5636 2.42014C17.5526 1.99759 18.3801 1.17444 18.8021 1.18541Z" fill="#0F1010" fill-opacity="0.6"/>
<path d="M12.2421 1.17437C12.7188 1.22925 13.5024 2.06887 13.4476 2.44203C13.3928 2.80971 13.1572 3.01824 12.7791 2.9908C12.4065 2.96336 11.6009 2.04692 11.6338 1.71217C11.6721 1.31705 11.9187 1.1634 12.2421 1.17437Z" fill="#0F1010" fill-opacity="0.6"/>
<path d="M16.1056 1.07006C16.1056 1.2292 16.122 1.39383 16.1056 1.54749C16.0562 1.89321 15.848 2.0798 15.4973 2.07431C15.1411 2.07431 14.9383 1.86578 14.9109 1.52005C14.889 1.22371 14.8945 0.921891 14.9109 0.620068C14.9219 0.246905 15.1247 -4.16553e-05 15.4973 -0.00552935C15.8973 -0.011017 16.1056 0.246905 16.122 0.647507C16.1275 0.784699 16.122 0.927379 16.122 1.07006H16.1056Z" fill="#0F1010" fill-opacity="0.6"/>
<path d="M15.4969 19.1136C15.1517 19.0258 14.8886 18.8502 14.916 18.4661C14.9434 18.0984 15.1736 17.8844 15.5517 17.9063C15.9024 17.9283 16.0997 18.1533 16.1052 18.488C16.1052 18.8667 15.8476 19.0423 15.4969 19.1081V19.1136Z" fill="#0F1010" fill-opacity="0.6"/>
<path d="M4.62496 27.3396C4.55921 27.7018 4.35645 27.9542 3.98929 27.9378C3.6331 27.9213 3.39746 27.6799 3.41938 27.2957C3.43582 26.95 3.64406 26.7469 4.00573 26.7415C4.40029 26.7415 4.56469 26.9829 4.63044 27.3341L4.62496 27.3396Z" fill="#0F1010" fill-opacity="0.6"/>
</g>
<defs>
<clipPath id="clip0_68_13922">
<rect width="31" height="31" fill="white"/>
</clipPath>
</defs>
</svg>
